<svg xmlns="http://www.w3.org/2000/svg" viewBox="0 0 1804.06004 425.96999">
  <g id="a7dd8990-7584-411c-b16a-9282daa791d1" data-name="Vrstva 2">
    <g id="be7b49b8-329d-4bd8-a180-5b5989635c56" data-name="logo comgate">
      <g id="e64d2002-3003-41f2-a755-5348af1e2e8a" data-name="logo comgate h">
        <path id="a74467ad-df49-48c2-83e8-2e8192ea7785" data-name="symbol" d="M0,0H421.45V425.97H0V0ZM152,159.35c7.97,0,22.85,1.33,34.01,4.34l5.31-33.99c-12.22-3.98-29.23-6.03-40.39-6.03-52.08,0-71.75,19.04-71.75,63.52v45.2c0,44.6,19.66,63.64,71.75,63.64,13.29,0,29.23-2.41,40.39-6.15l-5.31-33.99A141.51606,141.51606,0,0,1,152,260.35c-23.92,0-31.36-7.23-31.36-27.6V186.83c0-20.37,7.44-27.48,31.36-27.48Zm174.32-6.51c5.85-1.69,12.22-3.38,18.07-5.06V127.05H293.37a110.91977,110.91977,0,0,0-28.17-3.37c-47.83,0-65.9,20.73-66.43,55.08v15.55c0,20.13,6.91,35.44,22.32,44.6-7.97,5.79-17.01,14.58-17.01,28.21,0,21.09,9.03,28.93,32.42,31.58,21.26,2.41,28.7,3.5,47.83,5.42,12.76,1.45,15.94,3.13,15.94,13.26,0,10.97-6.91,13.26-39.86,13.26a232.2364,232.2364,0,0,1-55.8-7.11l-4.78,30.98c18.6,5.79,44.64,8.44,63.78,8.44,62.18,0,74.94-13.86,74.94-49.3,0-23.75-8.5-37-35.61-40.02-19.13-2.05-29.23-3.13-47.83-5.18-6.38-.6-9.03-2.65-9.03-7.11,0-5.06,4.25-9.88,9.57-13.26a85.04825,85.04825,0,0,0,9.57.36c46.24,0,66.96-20.37,66.96-54.12v-15.55c-.02-9.53007-2.14-18.81007-5.86-25.93008Zm-32.96,27.24c0-15.67-7.44-23.14-28.17-23.14-20.2,0-27.64,7.47-27.64,23.14v12.54c0,16.39,8.5,22.42,27.64,22.42,19.66,0,28.17-6.39,28.17-22.42Z" fill="#bf0000"/>
        <g id="a14c746e-3055-4a82-a1a0-65bdb7668edd" data-name="napis">
          <path d="M860.18,237.57V192.13c0-37-17.01-71.12-78.66-71.12-61.65,0-78.13,34.11-78.13,71.12v45.44c0,37,16.48,71.12,78.13,71.12,61.65-.01,78.66-34.12,78.66-71.12ZM815,190.56v48.58c0,20.25-9.57,30.98-33.48,30.98s-33.48-10.73-33.48-30.98V190.56c0-20.25,9.57-30.98,33.48-30.98S815,170.31,815,190.56Z" fill="#bf0000"/>
          <path d="M1047.78,303.14V178.02c13.82-8.08,35.61-15.07,46.77-15.07,10.63,0,14.35,4.82,14.35,14.34V303.14h45.17V172.48c0-32.18-10.63-53.28-40.39-53.28-21.79,0-51.02,8.2-72.80993,19.29-5.85-12.17-16.48-19.29-34.01-19.29-20.73,0-49.43,7.83-72.28,18.92l-4.25-15.19h-34.55v180.2h45.17V178.02c16.48-8.44,36.14-15.07,47.3-15.07,10.1,0,14.35,4.82,14.35,14.34V303.14Z" fill="#bf0000"/>
          <path d="M1260.9,252.27c49.96,0,72.28-22.18,72.28-58.82v-17c0-10.37-2.13-20.37-6.38-28.08,6.38-1.93,13.81995-3.74,20.19995-5.54V120.17h-55.80005a122.3046,122.3046,0,0,0-30.29-3.62c-52.61,0-72.28,22.54-72.81006,59.91v17c0,21.82,7.97,38.45,24.45,48.46-9.03,6.39-19.13,15.91-19.13,30.74,0,22.9,10.1,31.46,35.61,34.47,22.85,2.53,31.89,3.62,52.07995,5.91,13.82,1.45,17.54,3.25,17.54,14.34,0,11.93-7.43994,14.46-43.05005,14.46a247.15488,247.15488,0,0,1-60.59-7.71l-5.85,33.63c20.19995,6.27,48.89,9.28,69.62,9.28,67.5,0,81.31-15.19,81.31-53.64,0-25.92-9.03-40.38-38.27-43.75-21.26-2.17-32.42-3.25-52.08-5.54-7.43994-.72-10.1-2.89-10.1-7.71,0-5.54,4.78-10.73,10.63-14.46,3.19006.33,6.91015.33,10.63012.33Zm30.29-74.37v13.74c0,17.36-9.03,24.35-30.29,24.35s-30.29-6.63-30.29-24.35V177.9c0-17,7.97-25.07,30.29-25.07S1291.19,160.91,1291.19,177.9Z" fill="#bf0000"/>
          <path d="M1505.9,184.05c0-45.2-17.01-65.21-73.34-65.21-20.2,0-44.64,3.37-61.65,8.56l5.31006,34.35c15.93994-3.25,33.48-5.54,49.96-5.54,28.7,0,34.54,7.11,34.54,27.12v18.8h-43.58c-36.67,0-52.61,14.1-52.61,50.75,0,30.98,14.35,53.64,47.3,53.64a99.26947,99.26947,0,0,0,53.68005-15.91l3.18995,12.17h37.19995V184.05Zm-45.17,77.26a70.88036,70.88036,0,0,1-34.01,9.28c-14.35,0-18.06995-5.54-18.06995-18.08,0-13.74,3.72-17.84,18.6-17.84h33.48Z" fill="#bf0000"/>
          <path d="M1637.18,264.81a82.15568,82.15568,0,0,1-22.31994,3.74c-11.68994,0-16.48-6.27-16.48-15.91V158.26h43.58l2.66-35.92h-46.24V71.35l-45.17,6.27v44.72h-26.56994v35.92h26.56994V258.54c0,32.18,17.01,47.73,49.96,47.73,11.16,0,29.76-2.89,39.33-6.99Z" fill="#bf0000"/>
          <path d="M1704.14,236.36V227.2h99.92V188.75c0-38.93-12.76-72.56-70.68005-72.56-57.4,0-74.4,32.18-74.4,70.27v47.73c0,43.27,19.66,69.55,76,69.55,21.79,0,46.24-3.74,66.43005-11.45l-6.91-33.99a189.427,189.427,0,0,1-55.27,8.44c-27.6499,0-35.09-8.44-35.09-30.38Zm0-54.36c0-17,7.43994-28.81,29.76-28.81S1761.54,165,1761.54,182v8.92h-57.4Z" fill="#bf0000"/>
          <path d="M636.43,306.76c14.88,0,32.42-2.65,44.11-6.75l-5.85-37a146.38284,146.38284,0,0,1-37.2,4.82c-26.04,0-33.48-7.71-33.48-29.89V187.92c0-22.18,7.44-29.89,33.48-29.89,9.03,0,24.98,1.45,37.2,4.7l5.85-37c-13.29-4.34-31.36-6.63-44.11-6.63-56.87,0-77.59,20.73-77.59,69.19v49.18C558.84,286.02,579.56,306.76,636.43,306.76Z" fill="#bf0000"/>
        </g>
      </g>
    </g>
  </g>
</svg>
